<?xml version="1.0" encoding="UTF-8" standalone="no"?>
<!-- Created with Inkscape (http://www.inkscape.org/) -->

<svg
   xmlns:dc="http://purl.org/dc/elements/1.1/"
   xmlns:cc="http://creativecommons.org/ns#"
   xmlns:rdf="http://www.w3.org/1999/02/22-rdf-syntax-ns#"
   xmlns:svg="http://www.w3.org/2000/svg"
   xmlns="http://www.w3.org/2000/svg"
   xmlns:sodipodi="http://sodipodi.sourceforge.net/DTD/sodipodi-0.dtd"
   xmlns:inkscape="http://www.inkscape.org/namespaces/inkscape"
   inkscape:version="0.48.2 r9819"
   version="1.1"
   id="svg2"
   height="125"
   width="267"
   sodipodi:docname="logo.svg">
  <defs
     id="defs4" />
  <sodipodi:namedview
     id="base"
     pagecolor="#ffffff"
     bordercolor="#666666"
     borderopacity="1.0"
     inkscape:pageopacity="0.0"
     inkscape:pageshadow="2"
     inkscape:zoom="11.313709"
     inkscape:cx="214.79138"
     inkscape:cy="16.884024"
     inkscape:document-units="px"
     inkscape:current-layer="svg2"
     showgrid="false"
     inkscape:window-width="1600"
     inkscape:window-height="838"
     inkscape:window-x="-8"
     inkscape:window-y="-8"
     inkscape:window-maximized="1"
     showguides="true"
     inkscape:guide-bbox="true" />
  <metadata
     id="metadata7">
    <rdf:RDF>
      <cc:Work
         rdf:about="">
        <dc:format>image/svg+xml</dc:format>
        <dc:type
           rdf:resource="http://purl.org/dc/dcmitype/StillImage" />
        <dc:title />
      </cc:Work>
    </rdf:RDF>
  </metadata>
  <g
     inkscape:label="Layer 1"
     inkscape:groupmode="layer"
     id="layer1"
     transform="translate(0,-927.36218)" />
  <rect
     style="fill:#2540af;fill-opacity:1;fill-rule:nonzero;stroke:none"
     id="rect3816"
     width="125"
     height="125"
     x="0"
     y="0"
     ry="5.1999998"
     rx="5.1999998" />
  <path
     style="fill:#009aff;fill-opacity:1;stroke:none"
     d="m 121.44155,84.102607 -14.88069,33.604933 -4.53431,0 15.11879,-33.604933 z"
     id="path3829"
     inkscape:connector-curvature="0"
     sodipodi:nodetypes="ccccc" />
  <path
     style="fill:#009aff;fill-opacity:1;stroke:none"
     d="m 110.52647,95.178037 -9.85485,22.529503 -4.33958,0 9.3752,-22.529503 z"
     id="path3831"
     inkscape:connector-curvature="0"
     sodipodi:nodetypes="ccccc" />
  <path
     style="fill:#009aff;fill-opacity:1;stroke:none"
     d="m 92.78659,95.178037 -7.76009,19.058573 -1.75138,0 12.46094,-30.129353 -4.84835,0 -12.03388,30.157513 -20.396634,-0.0282 0.0414,3.47093 29.844574,0 9.44869,-22.529503 z"
     id="path3835"
     inkscape:connector-curvature="0"
     sodipodi:nodetypes="ccccccccccc" />
  <path
     style="fill:#009aff;fill-opacity:1;stroke:none"
     d="m 104.16634,95.178037 -9.85485,22.529503 -4.33958,0 9.3752,-22.529503 z"
     id="path3831-1"
     inkscape:connector-curvature="0"
     sodipodi:nodetypes="ccccc" />
  <path
     style="fill:#009aff;fill-opacity:1;stroke:none"
     d="m 104.29052,94.475607 1.29409,-2.94518 -4.64089,0 -1.38334,2.94518 z"
     id="path3869"
     inkscape:connector-curvature="0"
     sodipodi:nodetypes="ccccc" />
  <path
     style="fill:#009aff;fill-opacity:1;stroke:none"
     d="m 105.95919,90.720197 1.2941,-2.94519 -4.6409,0 -1.38334,2.94519 z"
     id="path3869-7"
     inkscape:connector-curvature="0"
     sodipodi:nodetypes="ccccc" />
  <path
     style="fill:#009aff;fill-opacity:1;stroke:none"
     d="m 107.46466,87.047787 1.29409,-2.94518 -4.64089,0 -1.38335,2.94518 z"
     id="path3869-7-4"
     inkscape:connector-curvature="0"
     sodipodi:nodetypes="ccccc" />
  <path
     style="fill:#009aff;fill-opacity:1;stroke:none"
     d="m 97.80915,94.399857 1.2941,-2.94519 -4.6409,0 -1.38334,2.94519 z"
     id="path3869-0"
     inkscape:connector-curvature="0"
     sodipodi:nodetypes="ccccc" />
  <path
     style="fill:#009aff;fill-opacity:1;stroke:none"
     d="m 90.53315,84.107257 -2.30753,5.5841 -1.39494,0 2.38188,-5.5841 z"
     id="path3938"
     inkscape:connector-curvature="0"
     sodipodi:nodetypes="ccccc" />
  <path
     style="fill:#0172ff;fill-opacity:1;stroke:none"
     d="M 42.504056,4.3538154 13.974275,87.210317 77.9672,109.24485 102.05715,39.282436 94.16265,21.874202 z"
     id="path3966"
     inkscape:connector-curvature="0"
     sodipodi:nodetypes="cccccc" />
  <path
     style="fill:#2f51ac;fill-opacity:1;stroke:none"
     d="M 44.450826,10.335228 19.200332,83.668007 75.83771,103.16983 97.15875,41.249056 90.17164,25.841776 z"
     id="path3966-6"
     inkscape:connector-curvature="0"
     sodipodi:nodetypes="cccccc" />
  <rect
     style="fill:#a2fcff;fill-opacity:1;fill-rule:nonzero;stroke:none"
     id="rect3994"
     width="55.053314"
     height="5.0507622"
     x="47.919289"
     y="65.500916"
     transform="matrix(0.94551857,0.32556816,-0.32556816,0.94551857,0,0)" />
  <rect
     style="fill:#a2fcff;fill-opacity:1;fill-rule:nonzero;stroke:none"
     id="rect3994-8"
     width="55.053314"
     height="5.0507622"
     x="47.919289"
     y="56.955242"
     transform="matrix(0.94551857,0.32556816,-0.32556816,0.94551857,0,0)" />
  <rect
     style="fill:#a2fcff;fill-opacity:1;fill-rule:nonzero;stroke:none"
     id="rect3994-82"
     width="35.767601"
     height="5.0507622"
     x="66.952492"
     y="47.843563"
     transform="matrix(0.94551857,0.32556816,-0.32556816,0.94551857,0,0)" />
  <rect
     style="fill:#a2fcff;fill-opacity:1;fill-rule:nonzero;stroke:none"
     id="rect3994-82-7"
     width="55.053314"
     height="5.0507622"
     x="47.666756"
     y="39.236958"
     transform="matrix(0.94551857,0.32556816,-0.32556816,0.94551857,0,0)" />
  <rect
     style="fill:#a2fcff;fill-opacity:1;fill-rule:nonzero;stroke:none"
     id="rect3994-82-7-7"
     width="55.053314"
     height="5.0507622"
     x="47.666756"
     y="30.145596"
     transform="matrix(0.94551857,0.32556816,-0.32556816,0.94551857,0,0)" />
  <rect
     style="fill:#a2fcff;fill-opacity:1;fill-rule:nonzero;stroke:none"
     id="rect3994-82-7-7-1"
     width="55.053314"
     height="5.0507622"
     x="47.560051"
     y="20.72275"
     transform="matrix(0.94551857,0.32556816,-0.32556816,0.94551857,0,0)" />
  <rect
     style="fill:#a2fcff;fill-opacity:1;fill-rule:nonzero;stroke:none"
     id="rect3994-82-7-7-1-2"
     width="55.053314"
     height="5.0507622"
     x="47.64933"
     y="11.615602"
     transform="matrix(0.94551857,0.32556816,-0.32556816,0.94551857,0,0)" />
  <rect
     style="fill:#a2fcff;fill-opacity:1;fill-rule:nonzero;stroke:none"
     id="rect3994-82-7-7-1-2-6"
     width="47.106884"
     height="5.0507622"
     x="47.381477"
     y="2.5977385"
     transform="matrix(0.94551857,0.32556816,-0.32556816,0.94551857,0,0)" />
  <path
     style="fill:#009fff;fill-opacity:1;stroke:none"
     d="m 5.8270284,23.580776 0,87.630764 67.6802216,0 0,-73.993704 -13.131984,-13.8896 z"
     id="path3966-4"
     inkscape:connector-curvature="0"
     sodipodi:nodetypes="cccccc" />
  <path
     style="fill:#2f72ac;fill-opacity:1;stroke:none"
     d="m 9.615098,28.602506 0,77.558274 59.900878,0 0,-65.488694 -11.62256,-12.29309 z"
     id="path3966-6-9"
     inkscape:connector-curvature="0"
     sodipodi:nodetypes="cccccc" />
  <rect
     style="fill:#a2fcff;fill-opacity:1;fill-rule:nonzero;stroke:none"
     id="rect3994-4"
     width="55.053314"
     height="5.0507622"
     x="12.140474"
     y="98.803024" />
  <rect
     style="fill:#a2fcff;fill-opacity:1;fill-rule:nonzero;stroke:none"
     id="rect3994-8-6"
     width="55.053314"
     height="5.0507622"
     x="12.140482"
     y="90.257355" />
  <rect
     style="fill:#a2fcff;fill-opacity:1;fill-rule:nonzero;stroke:none"
     id="rect3994-82-0"
     width="35.767601"
     height="5.0507622"
     x="31.173655"
     y="81.145691" />
  <rect
     style="fill:#a2fcff;fill-opacity:1;fill-rule:nonzero;stroke:none"
     id="rect3994-82-7-3"
     width="55.053314"
     height="5.0507622"
     x="11.887949"
     y="72.539078" />
  <rect
     style="fill:#a2fcff;fill-opacity:1;fill-rule:nonzero;stroke:none"
     id="rect3994-82-7-7-6"
     width="55.053314"
     height="5.0507622"
     x="11.887949"
     y="63.447708" />
  <rect
     style="fill:#a2fcff;fill-opacity:1;fill-rule:nonzero;stroke:none"
     id="rect3994-82-7-7-1-24"
     width="55.053314"
     height="5.0507622"
     x="11.781237"
     y="54.024872" />
  <rect
     style="fill:#a2fcff;fill-opacity:1;fill-rule:nonzero;stroke:none"
     id="rect3994-82-7-7-1-2-5"
     width="55.053314"
     height="5.0507622"
     x="11.870523"
     y="44.917747" />
  <rect
     style="fill:#a2fcff;fill-opacity:1;fill-rule:nonzero;stroke:none"
     id="rect3994-82-7-7-1-2-6-8"
     width="47.106884"
     height="5.0507622"
     x="11.602663"
     y="35.899876" />
  <path
     style="fill:#d5a922;fill-opacity:1;stroke:#d5a922;stroke-width:0.99999988px;stroke-linecap:butt;stroke-linejoin:miter;stroke-opacity:1"
     d="m 170.11516,77.819635 0.0615,-19.125146 3.98372,-0.077 c 2.72752,-0.557098 2.42941,-5.489585 -0.0615,-5.800684 l -26.68639,0 c -2.33933,0.482299 -2.32372,5.164286 0.0154,5.723685 l 4.32211,0.062 0.0615,19.125246 9.02876,4.862086 z"
     id="path3028"
     inkscape:connector-curvature="0"
     sodipodi:nodetypes="cccccccccc" />
  <path
     sodipodi:type="arc"
     style="fill:#1d1e1a;fill-opacity:1;fill-rule:nonzero;stroke:none"
     id="path3808"
     sodipodi:cx="1317.1428"
     sodipodi:cy="-323.21429"
     sodipodi:rx="19.285715"
     sodipodi:ry="20"
     d="m 1336.4285,-323.21429 a 19.285715,20 0 1 1 -38.5714,0 19.285715,20 0 1 1 38.5714,0 z"
     transform="matrix(0.07241104,0,0,0.06984842,63.735199,87.73824)" />
  <path
     style="fill:#1d1e1a;fill-opacity:1;stroke:#1d1e1a;stroke-width:0.99999988px;stroke-linecap:butt;stroke-linejoin:miter;stroke-opacity:1"
     d="m 153.80439,67.007665 0.29909,-1.093397 -0.28277,-0.076 -0.6417,2.306493 0.25016,0.055 0.29909,-1.006297 c 6.25188,5.057786 8.96684,4.270188 14.5523,-0.919498 l 0.35891,0.892198 0.24471,-0.1305 -0.82659,-2.067194 -0.24471,0.1197 0.32628,0.772398 c -3.27148,4.228288 -8.12879,6.620081 -14.33477,1.147896 z"
     id="path5277"
     inkscape:connector-curvature="0"
     sodipodi:nodetypes="ccccccccccccc" />
  <path
     sodipodi:type="arc"
     style="fill:#1d1e1a;fill-opacity:1;fill-rule:nonzero;stroke:none"
     id="path3808-3"
     sodipodi:cx="1317.1428"
     sodipodi:cy="-323.21429"
     sodipodi:rx="19.285715"
     sodipodi:ry="20"
     d="m 1336.4285,-323.21429 a 19.285715,20 0 1 1 -38.5714,0 19.285715,20 0 1 1 38.5714,0 z"
     transform="matrix(0.08836192,0,0,0.08523478,47.285193,92.721226)" />
  <path
     style="fill:#40647a;fill-opacity:1;stroke:#40647a;stroke-width:0.99999988px;stroke-linecap:butt;stroke-linejoin:miter;stroke-opacity:1"
     d="m 170.10992,77.587717 23.78655,37.818903 c 2.77875,4.36879 1.75589,8.62798 -2.36872,9.09338 l -59.723,0 c -3.42476,-0.4272 -8.01732,-3.12799 -3.39925,-10.19347 l 23.35637,-36.7888 9.06021,4.802987 z"
     id="path3030"
     inkscape:connector-curvature="0"
     sodipodi:nodetypes="cccccccc" />
  <path
     sodipodi:type="arc"
     style="fill:#ffffff;fill-opacity:1;fill-rule:nonzero;stroke:#000000;stroke-width:0;stroke-linecap:round;stroke-linejoin:miter;stroke-miterlimit:4;stroke-opacity:1;stroke-dasharray:none;stroke-dashoffset:0"
     id="path5584"
     sodipodi:cx="1381.6072"
     sodipodi:cy="342.32144"
     sodipodi:rx="30.535713"
     sodipodi:ry="27.678572"
     d="m 1412.1429,342.32144 a 30.535713,27.678572 0 1 1 -61.0714,0 30.535713,27.678572 0 1 1 61.0714,0 z"
     transform="matrix(0.04986497,0,0,0.05503081,93.083872,87.940639)" />
  <path
     sodipodi:type="arc"
     style="fill:#cdd1c1;fill-opacity:1;fill-rule:nonzero;stroke:#000000;stroke-width:0;stroke-linecap:round;stroke-linejoin:miter;stroke-miterlimit:4;stroke-opacity:1;stroke-dasharray:none;stroke-dashoffset:0"
     id="path5586"
     sodipodi:cx="1161.7858"
     sodipodi:cy="322.67856"
     sodipodi:rx="8.5714283"
     sodipodi:ry="9.1071424"
     d="m 1170.3572,322.67856 a 8.5714283,9.1071424 0 1 1 -17.1429,0 8.5714283,9.1071424 0 1 1 17.1429,0 z"
     transform="matrix(0.03552879,0,0,0.03345011,121.1576,95.854717)" />
  <path
     sodipodi:type="arc"
     style="fill:#cdd1c1;fill-opacity:1;fill-rule:nonzero;stroke:#000000;stroke-width:0;stroke-linecap:round;stroke-linejoin:miter;stroke-miterlimit:4;stroke-opacity:1;stroke-dasharray:none;stroke-dashoffset:0"
     id="path5586-6"
     sodipodi:cx="1161.7858"
     sodipodi:cy="322.67856"
     sodipodi:rx="8.5714283"
     sodipodi:ry="9.1071424"
     d="m 1170.3572,322.67856 a 8.5714283,9.1071424 0 1 1 -17.1429,0 8.5714283,9.1071424 0 1 1 17.1429,0 z"
     transform="matrix(0.03552879,0,0,0.03345011,120.20049,96.159316)" />
  <path
     sodipodi:type="arc"
     style="fill:#ffffff;fill-opacity:1;fill-rule:nonzero;stroke:#000000;stroke-width:0;stroke-linecap:round;stroke-linejoin:miter;stroke-miterlimit:4;stroke-opacity:1;stroke-dasharray:none;stroke-dashoffset:0"
     id="path5584-0"
     sodipodi:cx="1381.6072"
     sodipodi:cy="342.32144"
     sodipodi:rx="30.535713"
     sodipodi:ry="27.678572"
     d="m 1412.1429,342.32144 a 30.535713,27.678572 0 1 1 -61.0714,0 30.535713,27.678572 0 1 1 61.0714,0 z"
     transform="matrix(0.04986497,0,0,0.05503081,93.083862,97.427913)" />
  <path
     sodipodi:type="arc"
     style="fill:#cdd1c1;fill-opacity:1;fill-rule:nonzero;stroke:#000000;stroke-width:0;stroke-linecap:round;stroke-linejoin:miter;stroke-miterlimit:4;stroke-opacity:1;stroke-dasharray:none;stroke-dashoffset:0"
     id="path5586-3"
     sodipodi:cx="1161.7858"
     sodipodi:cy="322.67856"
     sodipodi:rx="8.5714283"
     sodipodi:ry="9.1071424"
     d="m 1170.3572,322.67856 a 8.5714283,9.1071424 0 1 1 -17.1429,0 8.5714283,9.1071424 0 1 1 17.1429,0 z"
     transform="matrix(0.03552879,0,0,0.03345011,121.22285,105.49419)" />
  <path
     sodipodi:type="arc"
     style="fill:#cdd1c1;fill-opacity:1;fill-rule:nonzero;stroke:#000000;stroke-width:0;stroke-linecap:round;stroke-linejoin:miter;stroke-miterlimit:4;stroke-opacity:1;stroke-dasharray:none;stroke-dashoffset:0"
     id="path5586-6-6"
     sodipodi:cx="1161.7858"
     sodipodi:cy="322.67856"
     sodipodi:rx="8.5714283"
     sodipodi:ry="9.1071424"
     d="m 1170.3572,322.67856 a 8.5714283,9.1071424 0 1 1 -17.1429,0 8.5714283,9.1071424 0 1 1 17.1429,0 z"
     transform="matrix(0.03552879,0,0,0.03345011,120.17873,105.42889)" />
  <path
     style="opacity:0.15;fill:#000000;fill-opacity:1;stroke:#000000;stroke-width:0.99999994px;stroke-linecap:butt;stroke-linejoin:miter;stroke-opacity:1"
     d="m 164.66618,96.0183 0.35849,1.717565 -2.92633,4.040445 -2.03262,-2.854416 z"
     id="path3004"
     inkscape:connector-curvature="0"
     sodipodi:nodetypes="ccccc" />
  <path
     style="opacity:0.15;fill:#000000;fill-opacity:1;stroke:#000000;stroke-width:0.99999988px;stroke-linecap:butt;stroke-linejoin:miter;stroke-opacity:1"
     d="m 163.7446,91.120769 -4.16803,2.575948 -0.50944,3.243447 0.18287,0.426561 5.01125,-3.131448 z"
     id="path3002"
     inkscape:connector-curvature="0"
     sodipodi:nodetypes="cccccc" />
  <path
     style="opacity:0.15;fill:#000000;fill-opacity:1;stroke:#6901ff;stroke-width:0.99999994px;stroke-linecap:butt;stroke-linejoin:miter;stroke-opacity:0"
     d="m 163.2037,85.522729 0.79046,4.111468 -4.91483,2.834926 0.74416,-4.920451 z"
     id="path3000"
     inkscape:connector-curvature="0"
     sodipodi:nodetypes="ccccc" />
  <path
     style="opacity:0.15;fill:#000000;fill-opacity:1;stroke:#000000;stroke-width:0.99999988px;stroke-linecap:butt;stroke-linejoin:miter;stroke-opacity:1"
     d="m 160.27921,85.853013 0.55757,-3.57029 c -0.58917,-0.629898 -0.63375,-1.042697 -0.67998,-1.506896 l 2.61689,-0.01 c 0.0147,0.681698 -0.44715,1.162497 -0.70577,1.518296 l 0.47682,2.292993 z"
     id="path2998"
     inkscape:connector-curvature="0"
     sodipodi:nodetypes="ccccccc" />
  <path
     style="fill:#cd0101;fill-opacity:1;stroke:#cd0101;stroke-width:0.99999988px;stroke-linecap:butt;stroke-linejoin:miter;stroke-opacity:1"
     d="m 160.13271,85.769313 0.55756,-3.57019 c -0.58917,-0.629898 -0.63375,-1.042797 -0.67999,-1.506896 l 2.6169,-0.01 c 0.0147,0.681698 -0.44715,1.162497 -0.70577,1.518296 l 0.47682,2.292994 z"
     id="path2998-0"
     inkscape:connector-curvature="0"
     sodipodi:nodetypes="ccccccc" />
  <path
     style="fill:#cd3f01;fill-opacity:1;stroke:#6901ff;stroke-width:0.99999994px;stroke-linecap:butt;stroke-linejoin:miter;stroke-opacity:0"
     d="m 163.04584,85.328547 0.80595,4.18819 -5.01116,2.887626 0.75872,-5.012129 z"
     id="path3000-4"
     inkscape:connector-curvature="0"
     sodipodi:nodetypes="ccccc" />
  <path
     style="fill:#cdb501;fill-opacity:1;stroke:#cdb501;stroke-width:0.99999982px;stroke-linecap:butt;stroke-linejoin:miter;stroke-opacity:1"
     d="m 163.543,90.948682 -4.17834,2.582137 -0.5107,3.251243 0.18332,0.427586 5.02363,-3.138881 z"
     id="path3002-9"
     inkscape:connector-curvature="0"
     sodipodi:nodetypes="cccccc" />
  <path
     style="fill:#7f9701;fill-opacity:1;stroke:#7f9701;stroke-width:0.99999988px;stroke-linecap:butt;stroke-linejoin:miter;stroke-opacity:1"
     d="m 164.49558,95.912603 0.36048,1.726882 -2.94257,4.062275 -2.04393,-2.869813 z"
     id="path3004-4"
     inkscape:connector-curvature="0"
     sodipodi:nodetypes="ccccc" />
  <path
     style="opacity:0.15;fill:#000000;fill-opacity:1;stroke:#000000;stroke-width:0.99999988px;stroke-linecap:butt;stroke-linejoin:miter;stroke-opacity:1"
     d="m 161.36332,81.018126 -2.57765,4.351988 -7.7547,-6.506182 0.70695,-1.098797 9.60365,2.959292 8.87494,-2.915792 0.64169,1.033497 -7.65681,6.560582 z"
     id="path3032-1"
     inkscape:connector-curvature="0"
     sodipodi:nodetypes="ccccccccc" />
  <path
     style="fill:#344c58;fill-opacity:1;stroke:#344c58;stroke-width:0.99999988px;stroke-linecap:butt;stroke-linejoin:miter;stroke-opacity:1"
     d="m 161.24739,81.054175 -2.46716,3.95414 -7.7547,-6.506082 0.70695,-1.098897 9.60364,2.959292 8.87495,-2.915792 0.6417,1.033597 -7.65682,6.560582 z"
     id="path3032"
     inkscape:connector-curvature="0"
     sodipodi:nodetypes="ccccccccc" />
  <path
     sodipodi:type="arc"
     style="fill:#ffffff;fill-opacity:1;fill-rule:nonzero;stroke:#000000;stroke-width:0;stroke-linecap:round;stroke-linejoin:miter;stroke-miterlimit:4;stroke-opacity:1;stroke-dasharray:none;stroke-dashoffset:0"
     id="path5584-0-2"
     sodipodi:cx="1381.6072"
     sodipodi:cy="342.32144"
     sodipodi:rx="30.535713"
     sodipodi:ry="27.678572"
     d="m 1412.1429,342.32144 a 30.535713,27.678572 0 1 1 -61.0714,0 30.535713,27.678572 0 1 1 61.0714,0 z"
     transform="matrix(0.0498653,0,0,0.05503117,164.08342,97.471925)" />
  <path
     sodipodi:type="arc"
     style="fill:#cdd1c1;fill-opacity:1;fill-rule:nonzero;stroke:#000000;stroke-width:0;stroke-linecap:round;stroke-linejoin:miter;stroke-miterlimit:4;stroke-opacity:1;stroke-dasharray:none;stroke-dashoffset:0"
     id="path5586-3-7"
     sodipodi:cx="1161.7858"
     sodipodi:cy="322.67856"
     sodipodi:rx="8.5714283"
     sodipodi:ry="9.1071424"
     d="m 1170.3572,322.67856 a 8.5714283,9.1071424 0 1 1 -17.1429,0 8.5714283,9.1071424 0 1 1 17.1429,0 z"
     transform="matrix(0.03552903,0,0,0.03345033,192.22258,105.53826)" />
  <path
     sodipodi:type="arc"
     style="fill:#cdd1c1;fill-opacity:1;fill-rule:nonzero;stroke:#000000;stroke-width:0;stroke-linecap:round;stroke-linejoin:miter;stroke-miterlimit:4;stroke-opacity:1;stroke-dasharray:none;stroke-dashoffset:0"
     id="path5586-6-6-7"
     sodipodi:cx="1161.7858"
     sodipodi:cy="322.67856"
     sodipodi:rx="8.5714283"
     sodipodi:ry="9.1071424"
     d="m 1170.3572,322.67856 a 8.5714283,9.1071424 0 1 1 -17.1429,0 8.5714283,9.1071424 0 1 1 17.1429,0 z"
     transform="matrix(0.03552903,0,0,0.03345033,191.17846,105.47295)" />
  <path
     style="fill:#d5a922;fill-opacity:1;stroke:#d5a922;stroke-width:0.99999988px;stroke-linecap:butt;stroke-linejoin:miter;stroke-opacity:1"
     d="m 241.15935,77.81963 0.0615,-19.125144 3.98372,-0.077 c 2.72752,-0.557098 2.42941,-5.489585 -0.0615,-5.800684 l -26.68639,0 c -2.33933,0.482299 -2.32372,5.164286 0.0154,5.723685 l 4.32211,0.062 0.0615,19.125243 9.02876,4.86209 z"
     id="path3028-1"
     inkscape:connector-curvature="0"
     sodipodi:nodetypes="cccccccccc" />
  <path
     style="fill:#40647a;fill-opacity:1;stroke:#40647a;stroke-width:0.99999988px;stroke-linecap:butt;stroke-linejoin:miter;stroke-opacity:1"
     d="m 241.15411,77.58771 23.78655,37.81891 c 2.77875,4.36879 1.75589,8.62798 -2.36872,9.09338 l -59.723,0 c -3.42476,-0.4272 -8.01732,-3.12799 -3.39925,-10.19347 l 23.35637,-36.7888 9.06021,4.80298 z"
     id="path3030-7"
     inkscape:connector-curvature="0"
     sodipodi:nodetypes="cccccccc" />
  <path
     sodipodi:type="arc"
     style="fill:#ffffff;fill-opacity:1;fill-rule:nonzero;stroke:#000000;stroke-width:0;stroke-linecap:round;stroke-linejoin:miter;stroke-miterlimit:4;stroke-opacity:1;stroke-dasharray:none;stroke-dashoffset:0"
     id="path5584-6"
     sodipodi:cx="1381.6072"
     sodipodi:cy="342.32144"
     sodipodi:rx="30.535713"
     sodipodi:ry="27.678572"
     d="m 1412.1429,342.32144 a 30.535713,27.678572 0 1 1 -61.0714,0 30.535713,27.678572 0 1 1 61.0714,0 z"
     transform="matrix(0.04986497,0,0,0.05503081,164.12783,87.94064)" />
  <path
     sodipodi:type="arc"
     style="fill:#cdd1c1;fill-opacity:1;fill-rule:nonzero;stroke:#000000;stroke-width:0;stroke-linecap:round;stroke-linejoin:miter;stroke-miterlimit:4;stroke-opacity:1;stroke-dasharray:none;stroke-dashoffset:0"
     id="path5586-1"
     sodipodi:cx="1161.7858"
     sodipodi:cy="322.67856"
     sodipodi:rx="8.5714283"
     sodipodi:ry="9.1071424"
     d="m 1170.3572,322.67856 a 8.5714283,9.1071424 0 1 1 -17.1429,0 8.5714283,9.1071424 0 1 1 17.1429,0 z"
     transform="matrix(0.03552879,0,0,0.03345011,192.20156,95.85471)" />
  <path
     sodipodi:type="arc"
     style="fill:#cdd1c1;fill-opacity:1;fill-rule:nonzero;stroke:#000000;stroke-width:0;stroke-linecap:round;stroke-linejoin:miter;stroke-miterlimit:4;stroke-opacity:1;stroke-dasharray:none;stroke-dashoffset:0"
     id="path5586-6-42"
     sodipodi:cx="1161.7858"
     sodipodi:cy="322.67856"
     sodipodi:rx="8.5714283"
     sodipodi:ry="9.1071424"
     d="m 1170.3572,322.67856 a 8.5714283,9.1071424 0 1 1 -17.1429,0 8.5714283,9.1071424 0 1 1 17.1429,0 z"
     transform="matrix(0.03552879,0,0,0.03345011,191.24445,96.15931)" />
  <path
     sodipodi:type="arc"
     style="fill:#ffffff;fill-opacity:1;fill-rule:nonzero;stroke:#000000;stroke-width:0;stroke-linecap:round;stroke-linejoin:miter;stroke-miterlimit:4;stroke-opacity:1;stroke-dasharray:none;stroke-dashoffset:0"
     id="path5584-0-3"
     sodipodi:cx="1381.6072"
     sodipodi:cy="342.32144"
     sodipodi:rx="30.535713"
     sodipodi:ry="27.678572"
     d="m 1412.1429,342.32144 a 30.535713,27.678572 0 1 1 -61.0714,0 30.535713,27.678572 0 1 1 61.0714,0 z"
     transform="matrix(0.04986497,0,0,0.05503081,164.12782,97.42791)" />
  <path
     sodipodi:type="arc"
     style="fill:#cdd1c1;fill-opacity:1;fill-rule:nonzero;stroke:#000000;stroke-width:0;stroke-linecap:round;stroke-linejoin:miter;stroke-miterlimit:4;stroke-opacity:1;stroke-dasharray:none;stroke-dashoffset:0"
     id="path5586-3-2"
     sodipodi:cx="1161.7858"
     sodipodi:cy="322.67856"
     sodipodi:rx="8.5714283"
     sodipodi:ry="9.1071424"
     d="m 1170.3572,322.67856 a 8.5714283,9.1071424 0 1 1 -17.1429,0 8.5714283,9.1071424 0 1 1 17.1429,0 z"
     transform="matrix(0.03552879,0,0,0.03345011,192.26681,105.49419)" />
  <path
     sodipodi:type="arc"
     style="fill:#cdd1c1;fill-opacity:1;fill-rule:nonzero;stroke:#000000;stroke-width:0;stroke-linecap:round;stroke-linejoin:miter;stroke-miterlimit:4;stroke-opacity:1;stroke-dasharray:none;stroke-dashoffset:0"
     id="path5586-6-6-2"
     sodipodi:cx="1161.7858"
     sodipodi:cy="322.67856"
     sodipodi:rx="8.5714283"
     sodipodi:ry="9.1071424"
     d="m 1170.3572,322.67856 a 8.5714283,9.1071424 0 1 1 -17.1429,0 8.5714283,9.1071424 0 1 1 17.1429,0 z"
     transform="matrix(0.03552879,0,0,0.03345011,191.22269,105.42889)" />
  <path
     style="opacity:0.15;fill:#000000;fill-opacity:1;stroke:#000000;stroke-width:0.99999994px;stroke-linecap:butt;stroke-linejoin:miter;stroke-opacity:1"
     d="m 235.71037,96.0183 0.35849,1.71756 -2.92633,4.04045 -2.03262,-2.85442 z"
     id="path3004-1"
     inkscape:connector-curvature="0"
     sodipodi:nodetypes="ccccc" />
  <path
     style="opacity:0.15;fill:#000000;fill-opacity:1;stroke:#000000;stroke-width:0.99999988px;stroke-linecap:butt;stroke-linejoin:miter;stroke-opacity:1"
     d="m 234.78879,91.12077 -4.16803,2.57594 -0.50944,3.24345 0.18287,0.42656 5.01125,-3.13145 z"
     id="path3002-6"
     inkscape:connector-curvature="0"
     sodipodi:nodetypes="cccccc" />
  <path
     style="opacity:0.15;fill:#000000;fill-opacity:1;stroke:#6901ff;stroke-width:0.99999994px;stroke-linecap:butt;stroke-linejoin:miter;stroke-opacity:0"
     d="m 234.24789,85.52273 0.79046,4.11146 -4.91483,2.83493 0.74416,-4.92045 z"
     id="path3000-8"
     inkscape:connector-curvature="0"
     sodipodi:nodetypes="ccccc" />
  <path
     style="opacity:0.15;fill:#000000;fill-opacity:1;stroke:#000000;stroke-width:0.99999988px;stroke-linecap:butt;stroke-linejoin:miter;stroke-opacity:1"
     d="m 231.3234,85.85301 0.55757,-3.57029 c -0.58917,-0.6299 -0.63375,-1.0427 -0.67998,-1.5069 l 2.61689,-0.01 c 0.0147,0.6817 -0.44715,1.1625 -0.70577,1.5183 l 0.47682,2.29299 z"
     id="path2998-5"
     inkscape:connector-curvature="0"
     sodipodi:nodetypes="ccccccc" />
  <path
     style="fill:#cd0101;fill-opacity:1;stroke:#cd0101;stroke-width:0.99999988px;stroke-linecap:butt;stroke-linejoin:miter;stroke-opacity:1"
     d="m 231.1769,85.76931 0.55756,-3.57019 c -0.58917,-0.6299 -0.63375,-1.0428 -0.67999,-1.5069 l 2.6169,-0.01 c 0.0147,0.6817 -0.44715,1.1625 -0.70577,1.5183 l 0.47682,2.29299 z"
     id="path2998-0-7"
     inkscape:connector-curvature="0"
     sodipodi:nodetypes="ccccccc" />
  <path
     style="fill:#cd3f01;fill-opacity:1;stroke:#6901ff;stroke-width:0.99999994px;stroke-linecap:butt;stroke-linejoin:miter;stroke-opacity:0"
     d="m 234.09003,85.32854 0.80595,4.18819 -5.01116,2.88763 0.75872,-5.01213 z"
     id="path3000-4-61"
     inkscape:connector-curvature="0"
     sodipodi:nodetypes="ccccc" />
  <path
     style="fill:#cdb501;fill-opacity:1;stroke:#cdb501;stroke-width:0.99999982px;stroke-linecap:butt;stroke-linejoin:miter;stroke-opacity:1"
     d="m 234.58719,90.94868 -4.17834,2.58214 -0.5107,3.25124 0.18332,0.42759 5.02363,-3.13889 z"
     id="path3002-9-8"
     inkscape:connector-curvature="0"
     sodipodi:nodetypes="cccccc" />
  <path
     style="fill:#7f9701;fill-opacity:1;stroke:#7f9701;stroke-width:0.99999988px;stroke-linecap:butt;stroke-linejoin:miter;stroke-opacity:1"
     d="m 235.53977,95.9126 0.36048,1.72688 -2.94257,4.06228 -2.04393,-2.86982 z"
     id="path3004-4-9"
     inkscape:connector-curvature="0"
     sodipodi:nodetypes="ccccc" />
  <path
     style="opacity:0.15;fill:#000000;fill-opacity:1;stroke:#000000;stroke-width:0.99999988px;stroke-linecap:butt;stroke-linejoin:miter;stroke-opacity:1"
     d="m 232.40751,81.01812 -2.57765,4.35199 -7.7547,-6.50618 0.70695,-1.0988 9.60365,2.95929 8.87494,-2.91579 0.64169,1.0335 -7.65681,6.56058 z"
     id="path3032-1-27"
     inkscape:connector-curvature="0"
     sodipodi:nodetypes="ccccccccc" />
  <path
     style="fill:#344c58;fill-opacity:1;stroke:#344c58;stroke-width:0.99999988px;stroke-linecap:butt;stroke-linejoin:miter;stroke-opacity:1"
     d="m 232.29158,81.05417 -2.46716,3.95414 -7.7547,-6.50608 0.70695,-1.0989 9.60364,2.9593 8.87495,-2.9158 0.6417,1.0336 -7.65682,6.56058 z"
     id="path3032-9"
     inkscape:connector-curvature="0"
     sodipodi:nodetypes="ccccccccc" />
  <path
     sodipodi:type="arc"
     style="fill:#1d1e1a;fill-opacity:1;fill-rule:nonzero;stroke:none"
     id="path3808-4"
     sodipodi:cx="1317.1428"
     sodipodi:cy="-323.21429"
     sodipodi:rx="19.285715"
     sodipodi:ry="223.56348"
     d="m 1336.4285,-323.21429 a 19.285715,223.56348 0 1 1 -38.5714,0 19.285715,223.56348 0 1 1 38.5714,0 z"
     transform="matrix(0.07241151,0,0,0.00232611,134.7348,66.147601)" />
  <path
     style="fill:#1d1e1a;fill-opacity:1;stroke:#1d1e1a;stroke-width:0.99999988px;stroke-linecap:butt;stroke-linejoin:miter;stroke-opacity:1"
     d="m 224.80458,67.051476 0.29909,-1.093404 -0.28277,-0.076 -0.6417,2.306507 0.25016,0.055 0.29909,-1.006304 c 6.79719,7.54016 8.90156,6.438595 14.55239,-0.919504 l 0.35892,0.892204 0.2447,-0.1305 -0.82659,-2.067208 -0.24471,0.1197 0.32628,0.772404 c -3.35754,3.846646 -8.43567,6.506134 -14.33486,1.147904 z"
     id="path5277-1"
     inkscape:connector-curvature="0"
     sodipodi:nodetypes="cccccccccccccc" />
  <path
     sodipodi:type="arc"
     style="fill:#1d1e1a;fill-opacity:1;fill-rule:nonzero;stroke:none"
     id="path3808-3-1"
     sodipodi:cx="1317.1428"
     sodipodi:cy="-323.21429"
     sodipodi:rx="19.285715"
     sodipodi:ry="187.51579"
     d="m 1336.4285,-323.21429 a 19.285715,187.51579 0 1 1 -38.5714,0 19.285715,187.51579 0 1 1 38.5714,0 z"
     transform="matrix(0.08835613,0,0,0.00320356,118.29295,66.418762)" />
</svg>
